<?xml version="1.0" encoding="UTF-8" standalone="no"?>
<svg
   class="youme-midi-icon"
   width="100"
   height="100"
   viewBox="0 0 100 100"
   xmlns="http://www.w3.org/2000/svg">
  <path
     style="fill:#000000;fill-opacity:1;stroke:none;stroke-width:0.281091"
     class="youme-midi-icon-large-circle"
     d="M 45.171091,0 A 49.999981,50.117056 0 0 0 0,49.882926 49.999981,50.117056 0 0 0 50.000001,100 49.999981,50.117056 0 0 0 100,49.882926 49.999981,50.117056 0 0 0 54.840974,0.0010993 4.9999981,5.0117056 0 0 1 55,1.2455066 4.9999981,5.0117056 0 0 1 50.000001,6.2572142 4.9999981,5.0117056 0 0 1 45,1.2455066 4.9999981,5.0117056 0 0 1 45.171091,0 Z M 24.327704,46.241494 A 3.7499986,3.7587792 0 0 1 28.077431,50 3.7499986,3.7587792 0 0 1 24.327704,53.758506 3.7499986,3.7587792 0 0 1 20.57743,50 3.7499986,3.7587792 0 0 1 24.327704,46.241494 Z m 51.344594,0 A 3.7499986,3.7587792 0 0 1 79.422572,50 3.7499986,3.7587792 0 0 1 75.672298,53.758506 3.7499986,3.7587792 0 0 1 71.922572,50 3.7499986,3.7587792 0 0 1 75.672298,46.241494 Z M 31.939022,63.702772 a 3.7499986,3.7587792 0 0 1 2.651896,1.100949 3.7499986,3.7587792 0 0 1 0,5.315664 3.7499986,3.7587792 0 0 1 -5.303246,0 3.7499986,3.7587792 0 0 1 0,-5.315664 3.7499986,3.7587792 0 0 1 2.65135,-1.100949 z m 36.306208,0 a 3.7499986,3.7587792 0 0 1 2.651896,1.100949 3.7499986,3.7587792 0 0 1 0,5.315664 3.7499986,3.7587792 0 0 1 -5.303246,0 3.7499986,3.7587792 0 0 1 0,-5.315664 3.7499986,3.7587792 0 0 1 2.65135,-1.100949 z m -18.245229,8.27113 a 3.7499986,3.7587792 0 0 1 3.749727,3.758506 3.7499986,3.7587792 0 0 1 -3.749727,3.759056 3.7499986,3.7587792 0 0 1 -3.749726,-3.759056 3.7499986,3.7587792 0 0 1 3.749726,-3.758506 z" />
</svg>
